<!--?xml version="1.0" standalone="no"?-->
<svg id="svg-blob" viewBox="0 0 100 100" xmlns="http://www.w3.org/2000/svg" version="1.1">
	<defs> 
		<linearGradient id="blob-gradient" x1="0" x2="1" y1="1" y2="0">
			<stop id="stop1" stop-color="#FFF0D8FF" offset="0%"></stop>
			<stop id="stop2" stop-color="#FFCF75FF" offset="100%"></stop>
		</linearGradient>
	</defs>
<path fill="url(#blob-gradient)" d="M21.2,-34.1C26.4,-29.6,28.9,-22,32.1,-14.7C35.3,-7.5,39.1,-0.7,37.7,5C36.2,10.6,29.4,15.1,23.8,19.4C18.2,23.8,13.8,28,8.6,29.9C3.3,31.7,-2.8,31.1,-10.2,30.7C-17.5,30.3,-26,30.1,-29.5,25.7C-32.9,21.4,-31.3,12.8,-31.2,5.2C-31.2,-2.4,-32.7,-9,-31.5,-15.5C-30.3,-22,-26.2,-28.3,-20.5,-32.5C-14.8,-36.7,-7.4,-38.9,0.3,-39.3C8,-39.8,16,-38.5,21.2,-34.1Z" width="100%" height="100%" transform="translate(50 50)" stroke-width="0" style="transition: all 0.3s ease 0s;"></path>
</svg>